<?xml version="1.0" encoding="utf-8"?>
<!-- Generator: $$$/GeneralStr/196=Adobe Illustrator 27.6.0, SVG Export Plug-In . SVG Version: 6.00 Build 0)  -->
<svg version="1.1" id="Calque_1" xmlns="http://www.w3.org/2000/svg" xmlns:xlink="http://www.w3.org/1999/xlink" x="0px" y="0px"
	 viewBox="0 0 658.1 210.8" style="enable-background:new 0 0 658.1 210.8;" xml:space="preserve">
<style type="text/css">
	.st0{fill:#213E6D;}
</style>
<polygon class="st0" points="3.7,35 31.7,35 31.7,33.3 3.7,33.3 3.7,4.5 35.2,4.5 35.2,2.8 2,2.8 2,64.2 3.7,64.2 "/>
<path class="st0" d="M100.2,35c2.4-1,4.3-2.3,5.8-3.9c1.5-1.6,2.6-3.5,3.3-5.6c0.7-2.1,1-4.2,1-6.4c0-3-0.6-5.6-1.7-7.7
	c-1.2-2.1-2.7-3.7-4.5-5c-1.8-1.3-3.8-2.2-5.9-2.8c-2.1-0.6-4-0.9-5.7-0.9H79.9v61.4h1.7V36.5h9.7c2.4,0,4.5-0.2,6.3-0.7l17,28.4h2
	L99.4,35.3C99.7,35.2,100,35.1,100.2,35z M91.1,34.8h-9.4V4.5h10.9c2.2,0,4.3,0.4,6.2,1c1.9,0.7,3.6,1.7,5.1,3
	c1.5,1.3,2.6,2.9,3.5,4.7c0.8,1.8,1.3,3.8,1.3,6c0,1.8-0.3,3.6-0.8,5.5c-0.6,1.8-1.5,3.5-2.8,5c-1.3,1.5-3,2.7-5.3,3.7
	C97.5,34.3,94.6,34.8,91.1,34.8z"/>
<path class="st0" d="M182.5,0L157,64.2h1.7l9.1-23h29.2l9.1,23h1.9L182.6,0H182.5z M168.5,39.6l14-35.4l14,35.4H168.5z"/>
<polygon class="st0" points="253.6,6.5 302.1,65.3 302.2,65.3 302.2,2.8 300.5,2.8 300.5,60.8 252,1.8 251.9,1.8 251.9,64.2 
	253.7,64.2 "/>
<path class="st0" d="M381.8,83c1.4-0.5,2.6-1.2,3.4-2.2c0.8-1,1.3-2.2,1.3-3.8c0-2.3-0.8-4-2.3-5.2c-1.5-1.2-3.7-1.8-6.6-1.8
	c-1.3,0-2.6,0.2-4.1,0.5c-0.3,0.1-0.5,0.1-0.7,0.2l4.6-5.7c0.3,0,0.5,0,0.8,0c2.1,0,4.1-0.2,6-0.6c1.9-0.4,3.7-0.9,5.5-1.6
	c1.7-0.7,3.3-1.4,4.9-2.3l-1-1.5c-2.2,1.3-4.6,2.3-7.2,3.1c-2.6,0.8-5.3,1.2-8.1,1.2c-4.5,0-8.5-0.8-12.1-2.3
	c-3.6-1.5-6.7-3.7-9.2-6.4c-2.6-2.7-4.5-5.8-5.9-9.4c-1.4-3.6-2.1-7.3-2.1-11.2c0-4.2,0.8-8.1,2.3-11.8c1.5-3.6,3.7-6.9,6.3-9.6
	c2.7-2.8,5.8-4.9,9.4-6.5c3.6-1.5,7.4-2.3,11.4-2.3c2.8,0,5.5,0.4,8.1,1.1c2.6,0.8,5,1.8,7.2,3.1l0.9-1.5c-2.4-1.4-4.9-2.5-7.7-3.3
	c-2.7-0.8-5.6-1.2-8.5-1.2c-4.3,0-8.4,0.8-12.2,2.4c-3.8,1.6-7.1,3.9-10,6.8c-2.9,2.9-5.1,6.3-6.7,10.1c-1.6,3.8-2.4,8-2.4,12.4
	c0,4.2,0.7,8.2,2.2,11.9c1.5,3.8,3.6,7.1,6.3,9.9c2.7,2.9,6,5.1,9.8,6.7c3,1.3,6.4,2.1,10,2.3l-5.5,6.8l1.2,1.1
	c0.7-0.3,1.7-0.7,3-0.9c1.3-0.3,2.4-0.4,3.4-0.4c2.4,0,4.3,0.5,5.4,1.6c1.2,1.1,1.7,2.4,1.7,4c0,1.7-0.7,3.1-2.1,4
	c-1.4,0.9-3.3,1.4-5.7,1.4c-1.6,0-2.9-0.2-4-0.7c-1.1-0.4-2-1-2.7-1.6l-0.9,1.3c0.9,0.7,2,1.3,3.3,1.7c1.3,0.4,2.8,0.7,4.5,0.7
	C378.7,83.7,380.3,83.5,381.8,83z"/>
<path class="st0" d="M488.9,55.7c2.9-2.9,5.2-6.2,6.8-10c1.7-3.8,2.5-7.8,2.5-12.2c0-4.3-0.8-8.4-2.5-12.2
	c-1.7-3.8-3.9-7.2-6.8-10.1c-2.9-2.9-6.2-5.1-10-6.8c-3.8-1.6-7.8-2.4-12.2-2.4c-4.3,0-8.4,0.8-12.2,2.4c-3.8,1.6-7.1,3.9-10,6.8
	c-2.9,2.9-5.1,6.2-6.7,10.1c-1.6,3.8-2.4,7.9-2.4,12.2c0,4.5,0.8,8.7,2.4,12.6c1.6,3.8,3.9,7.1,6.7,9.9c2.9,2.8,6.2,5,10,6.5
	c3.8,1.5,7.8,2.3,12.2,2.3c4.3,0,8.4-0.8,12.2-2.4C482.7,60.8,486,58.6,488.9,55.7z M466.5,63.2c-4,0-7.8-0.8-11.4-2.3
	c-3.6-1.5-6.7-3.6-9.4-6.3c-2.7-2.7-4.8-5.9-6.3-9.4c-1.5-3.6-2.3-7.4-2.3-11.5c0-4,0.7-7.7,2.2-11.3c1.5-3.6,3.6-6.8,6.3-9.6
	c2.7-2.8,5.8-5,9.4-6.6c3.6-1.6,7.5-2.4,11.7-2.4c4.1,0,7.9,0.8,11.5,2.4c3.6,1.6,6.7,3.7,9.4,6.5c2.7,2.7,4.9,5.9,6.4,9.5
	c1.6,3.6,2.4,7.4,2.4,11.5c0,4.1-0.8,8-2.4,11.6c-1.6,3.6-3.7,6.7-6.5,9.4c-2.7,2.7-5.9,4.8-9.5,6.3
	C474.5,62.5,470.6,63.2,466.5,63.2z"/>
<rect x="543" y="2.8" class="st0" width="1.7" height="61.4"/>
<path class="st0" d="M598.6,63.6c2.6,0.8,5.5,1.3,8.8,1.3c3.5,0,6.6-0.7,9.4-2.1c2.8-1.4,5-3.4,6.6-5.9c1.6-2.6,2.4-5.6,2.4-9.2
	c0-2.8-0.5-5.2-1.5-7.1c-1-2-2.3-3.6-4-4.9c-1.7-1.3-3.6-2.4-5.6-3.4c-2-0.9-4.1-1.8-6.2-2.5c-2.7-1-5.3-2.1-7.7-3.3
	c-2.4-1.1-4.3-2.5-5.8-4.2c-1.5-1.7-2.2-3.8-2.2-6.3c0-3.4,1.4-6.2,4.1-8.5c2.7-2.3,6.3-3.5,10.8-3.5c2.7,0,5.4,0.4,8,1.1
	c2.6,0.7,4.8,1.4,6.4,2.1l0.7-1.3c-2.1-1-4.6-1.8-7.6-2.4c-2.9-0.6-5.5-1-7.7-1c-3.1,0-5.9,0.6-8.4,1.7c-2.5,1.2-4.4,2.8-5.9,4.8
	c-1.5,2-2.2,4.4-2.2,7.2c0,2.2,0.5,4,1.4,5.6c0.9,1.6,2.2,2.9,3.7,4c1.5,1.1,3.3,2.1,5.2,2.9c1.9,0.8,3.9,1.6,5.9,2.3
	c2.8,1,5.5,2.2,8,3.5c2.5,1.3,4.6,2.9,6.3,5c1.6,2.1,2.4,4.8,2.4,8.3c0,3.5-0.8,6.4-2.5,8.7c-1.7,2.3-3.8,4-6.4,5.2
	c-2.6,1.1-5.4,1.7-8.2,1.7c-2.3,0-4.6-0.3-6.9-1c-2.2-0.7-4.3-1.5-6.2-2.4c-1.9-1-3.4-1.9-4.6-2.8l-0.9,1.6c0.8,0.5,2,1.2,3.7,2.2
	C593.9,61.9,596,62.8,598.6,63.6z"/>
<polygon class="st0" points="85.8,173.7 2.8,90 2,90 2,208.1 19,208.1 18.6,129.4 101.8,212 102.2,212 102.2,93.7 85.5,93.7 "/>
<polygon class="st0" points="151.4,158.7 203.2,158.7 203.2,142.5 151.4,142.5 151.4,109.9 209.7,109.9 209.7,93.7 134.5,93.7 
	134.5,208.1 211.9,208.1 211.9,191.8 151.4,191.8 "/>
<polygon class="st0" points="294.6,170.2 237.9,89.9 237.7,89.9 237.7,208.1 254,208.1 254,140.5 294.2,196.2 294.5,196.2 
	335.6,138.1 335.6,208.1 352.3,208.1 352.3,89.9 352,89.9 "/>
<polygon class="st0" points="401.3,158.7 453.2,158.7 453.2,142.5 401.3,142.5 401.3,109.9 459.6,109.9 459.6,93.7 384.5,93.7 
	384.5,208.1 461.8,208.1 461.8,191.8 401.3,191.8 "/>
<polygon class="st0" points="555.6,93.7 479.3,93.7 479.3,109.9 508.6,109.9 508.6,208.1 525.5,208.1 525.5,109.9 555.6,109.9 "/>
<path class="st0" d="M634.7,208.1h19.2l-50.3-119h-0.9l-50.3,119H569l11.6-28.4h42.9L634.7,208.1z M586.6,165.2l15.9-38.8l15.3,38.8
	H586.6z"/>
</svg>
