<?xml version="1.0" encoding="utf-8"?>
<!-- Generator: $$$/GeneralStr/196=Adobe Illustrator 27.6.0, SVG Export Plug-In . SVG Version: 6.00 Build 0)  -->
<svg version="1.1" id="Calque_1" xmlns="http://www.w3.org/2000/svg" xmlns:xlink="http://www.w3.org/1999/xlink" x="0px" y="0px"
	 viewBox="0 0 549.1 210.8" style="enable-background:new 0 0 549.1 210.8;" xml:space="preserve">
<style type="text/css">
	.st0{fill:#213E6D;}
</style>
<g>
	<path class="st0" d="M51.2,1.1v2.1H4.4v39.1h46.4v2.1H4.4v38.3H1.5V1.1H51.2z"/>
	<path class="st0" d="M93.5,1.1c3.8,0,7.1,0.6,9.9,1.9c2.7,1.3,5,3,6.8,5c1.8,2.1,3.2,4.4,4,7.1c0.9,2.7,1.3,5.4,1.3,8.3
		c0,2.5-0.3,4.9-1,7.3c-0.6,2.3-1.6,4.5-3,6.5c-1.4,2-3.1,3.7-5.2,5.1c-2.1,1.4-4.6,2.4-7.4,3l26.6,37.5h-3.4L96.1,45.7
		c-0.4,0.1-0.9,0.1-1.3,0.1c-0.4,0-0.9,0-1.3,0H68.3v37h-2.9V1.1H93.5z M68.3,43.7h25.2c3.4,0,6.3-0.6,8.7-1.7
		c2.4-1.1,4.4-2.7,5.9-4.5c1.6-1.9,2.7-4,3.4-6.5c0.7-2.4,1.1-4.9,1.1-7.5c0-2.6-0.4-5.2-1.1-7.6c-0.7-2.4-1.9-4.6-3.4-6.5
		c-1.5-1.9-3.5-3.4-5.9-4.5c-2.4-1.1-5.3-1.7-8.7-1.7H68.3V43.7z"/>
	<path class="st0" d="M166.8,0l35.8,82.8h-3.2l-13.8-31.8h-39.3l-13.7,31.8h-3.1L165.2,0H166.8z M147.2,48.8h37.5L165.9,5.4
		L147.2,48.8z"/>
	<path class="st0" d="M214.2,0l60.5,76.7V1.1h2.9v82.8h-1.3L215.8,7.3v75.5h-2.9V0H214.2z"/>
	<path class="st0" d="M358.6,13.5c-4.3-3.6-8.7-6.3-13.3-8.3c-4.6-2-9.6-3-15-3c-5.1,0-9.7,0.9-14,2.7c-4.3,1.8-8,4.4-11.1,7.8
		c-3.1,3.4-5.6,7.5-7.3,12.3c-1.7,4.8-2.6,10.3-2.6,16.3c0,6.1,0.9,11.7,2.7,16.6c1.8,5,4.2,9.2,7.3,12.7c3.1,3.5,6.8,6.2,11.1,8.2
		c4.3,1.9,8.9,2.9,14,2.9c2.8,0,5.7-0.3,8.4-1c2.8-0.6,5.4-1.6,7.9-3c2.5-1.4,4.8-3.1,6.8-5.1c2.1-2.1,3.8-4.5,5.1-7.3l2,1.3
		c-1.5,2.9-3.3,5.4-5.5,7.6c-2.2,2.1-4.6,3.9-7.3,5.3c-2.7,1.4-5.5,2.5-8.5,3.2c-3,0.7-6.1,1.1-9.1,1.1c-5.4,0-10.4-1-15.1-3
		c-4.6-2-8.6-4.9-12-8.6c-3.3-3.7-6-8.2-7.9-13.4c-1.9-5.2-2.9-11.1-2.9-17.5c0-6.4,0.9-12.2,2.8-17.2c1.9-5.1,4.5-9.4,7.9-13
		c3.4-3.6,7.4-6.3,12.1-8.2C319.8,1,324.9,0,330.5,0c6.1,0,11.5,1.1,16.4,3.2c4.9,2.1,9.3,4.9,13,8.3L358.6,13.5z M330.2,86.1
		l-6.6,18.3h-2.2l5.8-18.3H330.2z"/>
	<path class="st0" d="M407.2,0c6,0,11.3,1.2,15.9,3.5c4.6,2.3,8.5,5.5,11.6,9.4c3.1,3.9,5.5,8.4,7.2,13.5c1.6,5.1,2.5,10.3,2.5,15.6
		s-0.8,10.5-2.5,15.5c-1.6,5-4,9.5-7.2,13.4c-3.1,3.9-7,7-11.6,9.4c-4.6,2.3-9.9,3.5-15.9,3.5c-6.1,0-11.4-1.2-16-3.6
		c-4.6-2.4-8.4-5.5-11.5-9.5c-3.1-3.9-5.4-8.4-7-13.5c-1.6-5.1-2.4-10.2-2.4-15.5c0-5.3,0.8-10.5,2.4-15.6c1.6-5.1,4-9.5,7.1-13.4
		c3.1-3.9,7-7,11.6-9.3C395.9,1.2,401.2,0,407.2,0z M407.2,2.2c-5.4,0-10.2,1.1-14.5,3.3c-4.2,2.2-7.8,5.1-10.7,8.8
		c-2.9,3.7-5.1,7.9-6.6,12.7c-1.5,4.8-2.3,9.8-2.3,15c0,5.3,0.8,10.3,2.3,15.1c1.5,4.8,3.7,9,6.6,12.7c2.9,3.6,6.4,6.5,10.7,8.7
		c4.2,2.2,9.1,3.3,14.5,3.3c5.3,0,10.1-1.1,14.4-3.3c4.2-2.2,7.8-5.1,10.8-8.7c3-3.6,5.2-7.9,6.7-12.7c1.5-4.8,2.3-9.8,2.3-15.1
		c0-5.3-0.8-10.3-2.3-15.1c-1.5-4.8-3.8-9-6.7-12.7c-3-3.6-6.6-6.5-10.8-8.7C417.3,3.3,412.5,2.2,407.2,2.2z"/>
	<path class="st0" d="M462,1.1v81.7h-2.9V1.1H462z"/>
	<path class="st0" d="M530.7,9.6c-4.5-2.4-8.9-4.3-13.2-5.6c-4.3-1.3-8.8-1.9-13.5-1.9c-3.6,0-6.8,0.4-9.8,1.2c-3,0.8-5.5,2-7.6,3.6
		c-2.1,1.6-3.8,3.6-5,6c-1.2,2.4-1.8,5.2-1.8,8.4c0,4.1,1.1,7.4,3.4,9.9c2.2,2.5,5.9,4.5,10.9,6.1c1.8,0.6,3.8,1.1,6,1.6
		c2.2,0.5,4.4,1,6.7,1.5c2.2,0.5,4.4,1,6.5,1.4c2.1,0.5,4,0.9,5.6,1.4c5.3,1.6,9.3,3.9,11.7,6.8c2.5,2.9,3.7,6.8,3.7,11.6
		c0,6.8-2.4,12.2-7.2,16.1c-4.8,3.9-11.6,5.9-20.6,5.9c-2.1,0-4.4-0.1-6.9-0.4c-2.5-0.3-5.1-0.7-7.9-1.2c-2.7-0.6-5.4-1.3-8.1-2.3
		c-2.7-1-5.2-2.2-7.5-3.7l1-2.1c2.3,1.4,4.8,2.6,7.5,3.6c2.6,1,5.2,1.7,7.9,2.3c2.6,0.6,5.1,1,7.6,1.3c2.5,0.3,4.8,0.4,6.9,0.4
		c8.2,0,14.3-1.8,18.4-5.3c4.1-3.5,6.1-8.4,6.1-14.7c0-4.1-1-7.4-2.9-9.9c-2-2.5-5.3-4.5-10.1-6c-1.6-0.5-3.5-1-5.4-1.4
		c-2-0.5-4.1-0.9-6.2-1.4c-2.1-0.5-4.3-0.9-6.5-1.4c-2.2-0.5-4.3-1.1-6.3-1.7c-2.4-0.7-4.7-1.6-6.7-2.6c-2.1-1-3.9-2.3-5.4-3.7
		c-1.5-1.5-2.7-3.2-3.6-5.3c-0.9-2.1-1.3-4.5-1.3-7.3c0-3.4,0.7-6.4,2-9.1c1.4-2.6,3.2-4.8,5.7-6.6c2.4-1.7,5.3-3.1,8.7-4
		c3.4-0.9,7.1-1.3,11.2-1.3c5.1,0,9.8,0.6,14.3,1.9s8.8,3.1,12.8,5.6L530.7,9.6z"/>
</g>
<g>
	<path class="st0" d="M1.6,110.2L64.7,178v-66.6h12.8V209h-1.6l-63.1-67.8v66.6H0v-97.5H1.6z"/>
	<path class="st0" d="M166.5,111.5v13.1h-48.7v27.6H166v12.5h-48.2v30.1h49v13.1h-62.3v-96.3H166.5z"/>
	<path class="st0" d="M193.2,110.2l43.3,74.6l44-74.6h1.8v97.5h-12.6v-55L237,209h-1.5l-31.3-55.6v54.4h-12.6v-97.5H193.2z"/>
	<path class="st0" d="M371.1,111.5v13.1h-48.7v27.6h48.2v12.5h-48.2v30.1h49v13.1h-62.3v-96.3H371.1z"/>
	<path class="st0" d="M459.2,111.5v13.1h-28.1v83.2h-13.3v-83.2h-27.9v-13.1H459.2z"/>
	<path class="st0" d="M503.3,110.2l42.8,97.5h-14.3l-10.4-24.9H483l-10.6,24.9h-13.8l42.9-97.5H503.3z M486.9,173.4h30.3l-15.1-35.9
		L486.9,173.4z"/>
</g>
</svg>
