<?xml version="1.0" encoding="utf-8"?>
<!-- Generator: $$$/GeneralStr/196=Adobe Illustrator 27.6.0, SVG Export Plug-In . SVG Version: 6.00 Build 0)  -->
<svg version="1.1" id="Calque_1" xmlns="http://www.w3.org/2000/svg" xmlns:xlink="http://www.w3.org/1999/xlink" x="0px" y="0px"
	 viewBox="0 0 719.1 210.8" style="enable-background:new 0 0 719.1 210.8;" xml:space="preserve">
<g>
	<g>
		<path d="M171.3,1v13.5h-1.7c-0.2-2.3-0.7-4.4-1.5-6.2c-0.8-1.8-2-3.1-3.6-4.1c-1.6-1-3.6-1.5-6.1-1.5H150v45.8h6.5v1.7h-21.1v-1.7
			h5.9V2.7h-5.9V1H171.3z M160.2,33.4c-0.2-1.5-0.6-2.7-1.2-3.7s-1.5-1.8-2.7-2.3c-1.1-0.5-2.6-0.8-4.4-0.8h-4.3v-1.7h4.3
			c1.8,0,3.2-0.2,4.4-0.7c1.1-0.5,2-1.2,2.7-2.1s1.1-2.2,1.2-3.6h1.7v15H160.2z"/>
		<path d="M201.1,25.5v-1h9.6c2.1,0,3.9-0.4,5.3-1.2c1.4-0.8,2.5-2,3.3-3.6s1.1-3.7,1.1-6.2c0-2.5-0.4-4.6-1.1-6.2
			c-0.7-1.6-1.8-2.8-3.3-3.5c-1.4-0.8-3.2-1.1-5.3-1.1h-21.5V1h22.5c3.5,0,6.6,0.5,9.2,1.4c2.6,0.9,4.7,2.3,6.2,4.1
			c1.5,1.9,2.2,4.2,2.2,7c0,2.8-0.7,5.2-2.1,6.9c-1.4,1.8-3.4,3-6,3.9c-2.6,0.8-5.8,1.2-9.5,1.2H201.1z M189.3,50.2v-1.7h22.3v1.7
			H189.3z M196.1,49.3V2h8.6v47.3H196.1z M227.8,50.6c-2.1,0-3.8-0.3-4.9-1c-1.2-0.7-2.1-1.6-2.6-2.8c-0.5-1.2-0.9-2.5-1.1-3.9
			s-0.2-3-0.3-4.5c0-1.5-0.1-3-0.2-4.5c-0.1-1.4-0.4-2.8-1-3.9c-0.5-1.2-1.3-2.1-2.4-2.8c-1.1-0.7-2.7-1-4.7-1h-9.5v-0.9h13.2
			c3,0,5.5,0.4,7.3,1.3c1.8,0.8,3.1,2,4,3.3c0.9,1.4,1.5,2.9,1.8,4.5c0.3,1.7,0.5,3.3,0.5,5c0,1.7,0.1,3.2,0.1,4.5
			c0.1,1.4,0.3,2.5,0.7,3.3c0.4,0.8,1.2,1.3,2.2,1.3c0.7,0,1.3-0.1,1.8-0.2c0.5-0.1,1-0.3,1.5-0.5l0.6,1.7c-0.5,0.3-1.4,0.6-2.7,0.8
			C230.9,50.5,229.5,50.6,227.8,50.6z"/>
		<path d="M278.1,0l16.8,48.5h5.3v1.7h-21.2v-1.7h6l-12.2-37.9l-13.2,37.9h6.6v1.7h-14.5v-1.7h5.9L274.6,0H278.1z M263.6,35.1v-1.7
			h21v1.7H263.6z"/>
		<path d="M325.8,1v47.6h7.7v1.7h-16.3v-1.7h6.8V2.7h-6.8V1H325.8z M365.4,1v1.7h-6.9v48.2h-2.4L324.5,1h10.3L356.7,36V2.7h-7.4V1
			H365.4z"/>
		<path d="M407.1,50.9c-4.7,0-8.8-1.1-12.2-3.3s-6.1-5.2-8-9s-2.8-8.1-2.8-13c0-4.9,0.9-9.2,2.8-13c1.9-3.8,4.6-6.8,8-9
			s7.5-3.3,12.2-3.3c2.1,0,4,0.4,5.9,1.1c1.8,0.7,3.5,1.7,5,3l4.2-3.4h1.5V15h-1.8c-0.6-2.6-1.5-4.9-2.9-6.7s-3-3.3-4.9-4.4
			c-1.9-1-4-1.5-6.3-1.5c-2.6,0-4.8,0.6-6.6,1.9c-1.8,1.3-3.2,3-4.3,5.2c-1.1,2.2-1.8,4.7-2.3,7.5c-0.5,2.8-0.7,5.7-0.7,8.6
			c0,3,0.2,5.9,0.7,8.6c0.5,2.8,1.3,5.3,2.3,7.5c1.1,2.2,2.5,3.9,4.3,5.2c1.8,1.3,4,1.9,6.6,1.9c2.1,0,4-0.3,5.7-1
			c1.7-0.6,3.1-1.5,4.3-2.7s2.2-2.5,3-4c0.8-1.5,1.4-3.2,1.8-5h1.8v14.1h-1.5l-3.9-3.5c-1.5,1.3-3.2,2.3-5.2,3.1
			C411.7,50.5,409.5,50.9,407.1,50.9z M401.7,66.8v-1.7c1.9,0,3.4-0.3,4.5-1c1.1-0.6,1.6-1.5,1.6-2.6c0-1-0.3-1.8-0.9-2.4
			c-0.6-0.5-1.4-0.9-2.4-1.1s-2.1-0.3-3.3-0.3l5.8-7.8h2.2l-3.9,5.2c1.8,0.1,3.4,0.3,4.7,0.7c1.3,0.4,2.3,0.9,3.1,1.7
			c0.7,0.8,1.1,1.7,1.1,3c0,1.1-0.4,2.1-1.2,3.1c-0.8,1-2.1,1.7-3.9,2.3C407.1,66.5,404.7,66.8,401.7,66.8z"/>
		<path d="M467.2,50.9c-3.4,0-6.5-0.6-9.2-1.9c-2.7-1.3-5-3.1-6.9-5.4s-3.3-5-4.3-8c-1-3.1-1.5-6.4-1.5-9.9c0-3.5,0.5-6.9,1.5-9.9
			c1-3.1,2.5-5.7,4.4-8c1.9-2.3,4.2-4.1,6.9-5.4c2.7-1.3,5.6-1.9,8.9-1.9c3.3,0,6.2,0.6,8.9,1.9c2.7,1.3,5,3.1,6.9,5.4
			c1.9,2.3,3.4,5,4.4,8c1,3.1,1.5,6.4,1.5,9.9c0,3.5-0.5,6.9-1.5,9.9c-1,3.1-2.4,5.7-4.3,8s-4.2,4.1-6.9,5.4
			C473.7,50.2,470.6,50.9,467.2,50.9z M467.2,49.3c2.5,0,4.5-0.6,6.1-1.9c1.6-1.2,2.8-2.9,3.6-5.1s1.4-4.7,1.7-7.6s0.5-5.9,0.5-9.1
			c0-3.2-0.2-6.3-0.6-9.1c-0.4-2.9-1-5.4-1.9-7.6S474.5,5,473,3.8c-1.5-1.2-3.5-1.9-5.8-1.9s-4.3,0.6-5.8,1.9
			c-1.6,1.2-2.8,2.9-3.6,5.1c-0.9,2.2-1.5,4.7-1.9,7.6c-0.4,2.9-0.6,5.9-0.6,9.1c0,3.2,0.2,6.3,0.5,9.1s0.9,5.4,1.7,7.6
			c0.8,2.2,2,3.9,3.6,5.1C462.6,48.6,464.7,49.3,467.2,49.3z"/>
		<path d="M507.6,50.2v-1.7h7.2V2.7h-7.2V1h23.7v1.7h-7.9v45.8h7.9v1.7H507.6z"/>
		<path d="M567.4,51.2c-2.6,0-4.8-0.4-6.7-1.2s-3.6-1.9-5-3.3l-4.1,4.2H550V36.2h1.7c0.5,1.7,1.2,3.4,2,5s1.9,3,3.1,4.2
			c1.2,1.2,2.7,2.2,4.3,2.9c1.7,0.7,3.6,1.1,5.7,1.1c2.2,0,4-0.4,5.6-1.1s2.8-1.8,3.6-3.1s1.3-3,1.3-4.9c0-1.8-0.5-3.4-1.4-4.6
			c-1-1.2-2.2-2.3-3.8-3.2s-3.3-1.7-5.1-2.5c-1.9-0.8-3.7-1.6-5.6-2.5s-3.6-2-5.1-3.2c-1.6-1.2-2.8-2.8-3.7-4.5
			c-0.9-1.8-1.4-4-1.4-6.6s0.6-4.9,1.9-6.8c1.3-1.9,3-3.4,5.2-4.4s4.5-1.5,7.1-1.5c2,0,3.9,0.3,5.6,1c1.7,0.6,3.3,1.6,4.6,2.9
			l4.1-3.8h1.4v14.3h-1.7c-0.7-2.6-1.7-4.9-2.9-6.7c-1.3-1.9-2.8-3.3-4.5-4.2c-1.8-1-3.8-1.4-6-1.4c-2.8,0-5,0.7-6.5,2
			c-1.5,1.3-2.2,3.1-2.2,5.3c0,1.6,0.5,3,1.4,4.2c0.9,1.1,2.2,2.2,3.7,3c1.5,0.9,3.2,1.7,5.1,2.5c1.8,0.8,3.7,1.7,5.5,2.6
			c1.8,0.9,3.5,2.1,5.1,3.3c1.5,1.3,2.8,2.9,3.7,4.7c0.9,1.8,1.4,4.1,1.4,6.7c0,3-0.7,5.6-2,7.8s-3.2,3.9-5.6,5.1
			C573.2,50.6,570.5,51.2,567.4,51.2z"/>
	</g>
	<g>
		<polygon points="67,104.9 83.7,104.9 83.7,188.2 31.3,103.1 16.3,103.1 15,103.1 0,103.1 0,104.9 14.4,104.9 14.4,208.3 0,208.3 
			0,210.1 33.2,210.1 33.2,208.3 16.3,208.3 16.3,105.1 83.1,211.5 85.5,211.5 85.5,104.9 100.5,104.9 100.5,103.1 67,103.1 		"/>
		<path d="M209.1,193.8c-1.6,4.5-4.4,8.1-8.1,10.6c-3.8,2.5-8.9,3.8-15.4,3.8h-22.8v-52.6h8.6c2.7,0,5.2,0.6,7.4,1.7s4,2.8,5.3,5
			c1.3,2.2,2,4.9,2,8.1h1.8v-30.6h-1.8c0,3.2-0.7,5.8-2,7.9c-1.3,2.1-3.1,3.6-5.3,4.7c-2.2,1-4.7,1.5-7.4,1.5h-8.6v-49H187
			c5.6,0,10,1.2,13.4,3.7c3.4,2.4,5.9,5.8,7.4,9.9s2.3,8.8,2.3,13.9h1.7v-29.2h-75.5v1.8h12.8v103.4h-12.8v1.8h77V178h-1.8
			C211.6,184,210.8,189.3,209.1,193.8z"/>
		<polygon points="341.9,103.1 340.5,103.1 309.4,192 276.4,103.1 263.6,103.1 262.8,103.1 251,103.1 251,104.9 261.9,104.9 
			261.9,208.3 251.6,208.3 251.6,210.1 274.4,210.1 274.4,208.3 263.6,208.3 263.6,105.4 302.4,211.5 304.6,211.5 341.9,104.5 
			341.9,208.3 330.4,208.3 330.4,210.1 365.4,210.1 365.4,208.3 355.4,208.3 355.4,104.9 365.4,104.9 365.4,103.1 342.4,103.1 		"/>
		<path d="M474,193.8c-1.6,4.5-4.4,8.1-8.1,10.6c-3.8,2.5-8.9,3.8-15.4,3.8h-22.8v-52.6h8.6c2.7,0,5.2,0.6,7.4,1.7s4,2.8,5.3,5
			c1.3,2.2,2,4.9,2,8.1h1.8v-30.6h-1.8c0,3.2-0.7,5.8-2,7.9c-1.3,2.1-3.1,3.6-5.3,4.7c-2.2,1-4.7,1.5-7.4,1.5h-8.6v-49h24.2
			c5.6,0,10,1.2,13.4,3.7c3.4,2.4,5.9,5.8,7.4,9.9s2.3,8.8,2.3,13.9h1.7v-29.2h-75.5v1.8H414v103.4h-12.8v1.8h77V178h-1.8
			C476.4,184,475.6,189.3,474,193.8z"/>
		<path d="M515.8,135.2h1.8c0-4.5,0.3-8.6,0.8-12.4c0.5-3.7,1.6-6.9,3-9.6c1.5-2.7,3.5-4.7,6.2-6.2s6.1-2.2,10.3-2.2h14.3v103.4
			h-15.7v1.8h44.9v-1.8h-15.7V104.9H580c4.1,0,7.5,0.7,10.2,2.2c2.7,1.5,4.7,3.5,6.2,6.2c1.5,2.7,2.5,5.9,3.1,9.6
			c0.6,3.7,0.9,7.9,0.9,12.4h1.8v-32.1h-86.3V135.2z"/>
		<path d="M707.9,208.3L670.7,101h-1.9l-37.6,107.3H618v1.8h31.4v-1.8h-16l11.2-32.2h37.4l10.4,32.2h-15v1.8h41.4v-1.8H707.9z
			 M645.2,174.3l18.8-53.8l17.4,53.8H645.2z"/>
	</g>
</g>
</svg>
