<?xml version="1.0" encoding="utf-8"?>
<!-- Generator: $$$/GeneralStr/196=Adobe Illustrator 27.6.0, SVG Export Plug-In . SVG Version: 6.00 Build 0)  -->
<svg version="1.1" id="Calque_1" xmlns="http://www.w3.org/2000/svg" xmlns:xlink="http://www.w3.org/1999/xlink" x="0px" y="0px"
	 viewBox="0 0 743.5 215.6" style="enable-background:new 0 0 743.5 215.6;" xml:space="preserve">
<style type="text/css">
	.st0{fill:#FFFFFF;}
</style>
<g>
	<g>
		<path class="st0" d="M199.2,0.9v12.6h-0.8c-0.2-2.2-0.7-4.2-1.5-6c-0.8-1.8-2-3.2-3.6-4.3c-1.6-1.1-3.5-1.6-5.8-1.6h-8.1v44.7h6.1
			v0.8h-19.8v-0.8h5.6V1.7h-5.6V0.9H199.2z M189.5,31.4c-0.2-1.4-0.6-2.6-1.3-3.6c-0.7-1-1.6-1.8-2.7-2.4c-1.2-0.6-2.6-0.8-4.2-0.8
			h-4v-0.7h4c1.7,0,3.1-0.3,4.2-0.8c1.2-0.5,2.1-1.3,2.7-2.2c0.7-1,1.1-2.1,1.3-3.5h0.8v14.1H189.5z"/>
		<path class="st0" d="M226.2,23.7v-0.5h9.1c2,0,3.6-0.4,5-1.2c1.3-0.8,2.4-2,3.1-3.6c0.7-1.6,1-3.6,1-5.9c0-2.4-0.4-4.3-1-6
			c-0.7-1.6-1.7-2.8-3.1-3.6c-1.3-0.8-3-1.2-5-1.2h-20.2V0.9h21.1c3.3,0,6.2,0.4,8.7,1.2c2.5,0.8,4.4,2.1,5.8,3.8
			c1.4,1.7,2.1,3.9,2.1,6.6s-0.6,4.8-1.9,6.5c-1.3,1.6-3.2,2.8-5.6,3.6c-2.5,0.8-5.4,1.1-8.9,1.1H226.2z M215.1,47.2v-0.8h20.9v0.8
			H215.1z M221.5,46.8V1.4h8.1v45.4H221.5z M251.3,47.6c-2,0-3.5-0.3-4.6-1c-1.1-0.7-1.9-1.6-2.5-2.7c-0.5-1.1-0.9-2.4-1-3.8
			c-0.1-1.4-0.2-2.8-0.2-4.3c0-1.5-0.1-2.9-0.2-4.3c-0.1-1.4-0.4-2.7-0.9-3.8c-0.5-1.1-1.2-2-2.3-2.7c-1.1-0.7-2.5-1-4.4-1h-8.9
			v-0.4h12.4c2.9,0,5.2,0.4,6.9,1.2c1.7,0.8,3,1.9,3.8,3.3c0.8,1.4,1.4,2.9,1.7,4.5c0.3,1.6,0.4,3.3,0.4,4.9c0,1.6,0,3.1,0.1,4.5
			s0.3,2.5,0.7,3.3c0.4,0.8,1.1,1.2,2.2,1.2c0.6,0,1.2-0.1,1.8-0.2c0.6-0.1,1.1-0.3,1.5-0.5l0.3,0.7c-0.5,0.3-1.3,0.5-2.5,0.8
			C254.3,47.4,252.9,47.6,251.3,47.6z"/>
		<path class="st0" d="M297.4,0l16.1,46.4h4.6v0.8h-19.8v-0.8h5.9L292.3,9.8l-12.8,36.6h6.9v0.8h-13.6v-0.8h5.8L294.9,0H297.4z
			 M284,32.5v-0.8h19v0.8H284z"/>
		<path class="st0" d="M340.2,0.9v45.5h7.2v0.8h-14.3v-0.8h6.2V1.7h-6.2V0.9H340.2z M377.5,0.9v0.8H371v46.1h-1L339.7,0.9h9.7
			l20.9,33V1.7h-7.1V0.9H377.5z"/>
		<path class="st0" d="M415.8,47.8c-4.4,0-8.3-1-11.5-3.1c-3.2-2-5.8-4.9-7.5-8.4c-1.8-3.6-2.7-7.7-2.7-12.2s0.9-8.7,2.7-12.2
			c1.8-3.6,4.3-6.4,7.5-8.4c3.2-2,7.1-3.1,11.5-3.1c2,0,3.8,0.3,5.5,1c1.7,0.7,3.2,1.6,4.6,2.9l4.5-3.3h0.7v13.2h-0.8
			c-0.5-2.5-1.4-4.8-2.7-6.7c-1.3-1.9-3-3.4-4.9-4.5c-1.9-1.1-4-1.6-6.3-1.6c-2.4,0-4.5,0.6-6.2,1.9c-1.7,1.3-3,3-4,5.2
			c-1,2.2-1.7,4.6-2.2,7.3c-0.5,2.7-0.7,5.4-0.7,8.3c0,2.8,0.2,5.5,0.7,8.3c0.5,2.7,1.2,5.1,2.2,7.3c1,2.2,2.3,3.9,4,5.2
			c1.7,1.3,3.7,1.9,6.2,1.9c2.1,0,3.9-0.3,5.6-1c1.6-0.7,3.1-1.6,4.3-2.8c1.2-1.2,2.2-2.5,3-4.1c0.8-1.6,1.3-3.2,1.6-5h0.8v13.2H431
			l-4.1-3.5c-1.3,1.3-2.9,2.3-4.8,3C420.2,47.4,418.1,47.8,415.8,47.8z M411.3,62.6v-0.7c1.8,0,3.2-0.4,4.2-1c1-0.7,1.5-1.6,1.5-2.7
			c0-1-0.3-1.8-0.8-2.3c-0.6-0.5-1.3-0.9-2.3-1.1c-0.9-0.2-2-0.3-3.1-0.3l5.3-7.2h1l-3.5,4.7c1.8,0.1,3.4,0.3,4.8,0.6
			c1.4,0.3,2.5,0.9,3.3,1.6c0.8,0.7,1.2,1.6,1.2,2.8c0,1-0.4,2-1.1,2.8c-0.7,0.9-1.9,1.5-3.6,2C416.4,62.4,414.2,62.6,411.3,62.6z"
			/>
		<path class="st0" d="M470.6,47.8c-3.2,0-6.1-0.6-8.6-1.8c-2.5-1.2-4.7-2.9-6.4-5.1c-1.8-2.2-3.1-4.7-4-7.6c-0.9-2.9-1.4-6-1.4-9.3
			s0.5-6.4,1.5-9.3c1-2.9,2.4-5.4,4.2-7.6c1.8-2.2,4-3.9,6.5-5.1c2.5-1.2,5.3-1.8,8.4-1.8c3.1,0,5.9,0.6,8.4,1.8
			c2.5,1.2,4.7,2.9,6.5,5.1c1.8,2.2,3.2,4.7,4.2,7.6c1,2.9,1.4,6,1.4,9.3s-0.5,6.4-1.4,9.3c-0.9,2.9-2.3,5.4-4,7.6
			c-1.8,2.2-3.9,3.9-6.4,5.1C476.7,47.2,473.8,47.8,470.6,47.8z M470.6,47.1c2.4,0,4.3-0.6,5.7-1.9c1.5-1.2,2.6-2.9,3.4-5.1
			c0.8-2.2,1.3-4.6,1.6-7.4c0.3-2.8,0.4-5.7,0.4-8.7c0-3-0.2-5.9-0.5-8.7c-0.3-2.8-0.9-5.2-1.8-7.4c-0.8-2.2-2-3.9-3.4-5.1
			c-1.4-1.2-3.3-1.9-5.5-1.9c-2.2,0-4,0.6-5.5,1.9c-1.4,1.2-2.6,2.9-3.4,5.1c-0.8,2.1-1.4,4.6-1.8,7.4c-0.3,2.8-0.5,5.7-0.5,8.7
			c0,3,0.1,5.9,0.4,8.7c0.3,2.8,0.8,5.2,1.6,7.4c0.8,2.1,1.9,3.8,3.4,5.1C466.3,46.5,468.2,47.1,470.6,47.1z"/>
		<path class="st0" d="M507.6,47.2v-0.8h6.8V1.7h-6.8V0.9h22.3v0.8h-7.4v44.7h7.4v0.8H507.6z"/>
		<path class="st0" d="M562.7,48.1c-2.5,0-4.6-0.4-6.4-1.2c-1.8-0.8-3.3-1.8-4.5-3.2l-4.4,4.1h-0.7V34h0.8c0.5,1.7,1.1,3.4,1.9,5
			s1.8,3,3,4.2c1.2,1.2,2.6,2.2,4.3,2.9c1.6,0.7,3.5,1.1,5.7,1.1c2.1,0,3.8-0.4,5.3-1.1c1.5-0.8,2.6-1.8,3.5-3.2
			c0.8-1.4,1.2-3,1.2-4.9c0-1.7-0.5-3.2-1.4-4.4c-0.9-1.2-2.1-2.2-3.6-3.1c-1.5-0.9-3.1-1.7-4.9-2.4c-1.8-0.8-3.5-1.6-5.3-2.4
			c-1.8-0.9-3.4-1.9-4.9-3c-1.5-1.2-2.7-2.6-3.5-4.3c-0.9-1.7-1.3-3.8-1.3-6.2s0.6-4.6,1.9-6.4c1.2-1.8,2.9-3.2,4.9-4.1
			c2-1,4.2-1.4,6.6-1.4c1.9,0,3.7,0.3,5.3,0.9c1.6,0.6,3,1.5,4.3,2.8l4.3-3.7h0.6v13.4h-0.7c-0.7-2.7-1.6-5-2.9-6.9
			c-1.2-1.9-2.7-3.3-4.5-4.2c-1.8-1-3.8-1.4-6-1.4c-2.7,0-4.7,0.7-6.1,2c-1.4,1.4-2.1,3.1-2.1,5.3c0,1.6,0.4,2.9,1.3,4
			c0.9,1.1,2.1,2,3.5,2.9c1.5,0.8,3.1,1.6,4.8,2.4c1.7,0.8,3.5,1.6,5.2,2.5c1.7,0.9,3.3,2,4.8,3.2c1.4,1.2,2.6,2.7,3.5,4.5
			c0.9,1.8,1.3,3.9,1.3,6.4c0,2.8-0.6,5.2-1.9,7.3c-1.3,2.1-3,3.7-5.3,4.8C568.1,47.5,565.6,48.1,562.7,48.1z"/>
	</g>
	<g>
		<path class="st0" d="M15.7,106.2v107.8h17.4v1.1H0v-1.1h14.5V107.3H0v-1.1H15.7z M101.6,106.2v1.1H86.3v109.2h-1.5l-70-110.3h16.7
			l53.6,86.6v-85.6H68v-1.1H101.6z"/>
		<path class="st0" d="M137.1,215v-1.1h13V107.3h-13v-1.1h76.6v29.8h-1.1c0-5.2-0.8-9.9-2.4-14.3c-1.6-4.4-4.2-7.8-7.7-10.4
			c-3.5-2.6-8.1-3.9-13.8-3.9h-24.7v106.7h23.2c6.6,0,11.9-1.4,15.8-4.1c3.9-2.7,6.7-6.4,8.5-11.2c1.7-4.7,2.6-10.2,2.6-16.3h1.1
			V215H137.1z M187.9,174.7c0-3.2-0.7-6-2.1-8.3c-1.4-2.3-3.2-4.1-5.6-5.3c-2.3-1.2-4.9-1.8-7.6-1.8h-13.8v-1.1h13.8
			c2.8,0,5.3-0.6,7.6-1.7c2.3-1.1,4.2-2.8,5.6-4.9s2.1-4.9,2.1-8.1h1.1v31.2H187.9z"/>
		<path class="st0" d="M264.6,106.2v107.8h11.1v1.1H253v-1.1h10.4V107.3h-11.1v-1.1H264.6z M304.3,216.5L264,106.2h13.9l33.5,90.3
			l31.9-90.3h1.2l-38.7,110.3H304.3z M367.9,106.2v1.1h-10.2v106.7h10.2v1.1h-35.6v-1.1h11.7V106.2H367.9z"/>
		<path class="st0" d="M403.4,215v-1.1h13V107.3h-13v-1.1h76.6v29.8h-1.1c0-5.2-0.8-9.9-2.4-14.3c-1.6-4.4-4.2-7.8-7.7-10.4
			s-8.1-3.9-13.8-3.9h-24.7v106.7h23.2c6.6,0,11.9-1.4,15.8-4.1c3.9-2.7,6.7-6.4,8.5-11.2c1.7-4.7,2.6-10.2,2.6-16.3h1.1V215H403.4z
			 M454.2,174.7c0-3.2-0.7-6-2.1-8.3c-1.4-2.3-3.2-4.1-5.6-5.3c-2.3-1.2-4.9-1.8-7.6-1.8h-13.8v-1.1h13.8c2.8,0,5.3-0.6,7.6-1.7
			c2.3-1.1,4.2-2.8,5.6-4.9s2.1-4.9,2.1-8.1h1.1v31.2H454.2z"/>
		<path class="st0" d="M539.3,215v-1.1h16V107.3h-14.5c-4.3,0-7.8,0.8-10.5,2.3c-2.7,1.5-4.9,3.7-6.4,6.5c-1.5,2.8-2.6,6.1-3.2,10
			c-0.6,3.9-0.9,8.1-0.9,12.7h-1.1v-32.7h87.1v32.7h-1.2c0-4.6-0.3-8.8-0.9-12.7c-0.6-3.9-1.7-7.2-3.2-10c-1.5-2.8-3.7-5-6.4-6.5
			c-2.7-1.5-6.2-2.3-10.5-2.3H569v106.7h16v1.1H539.3z"/>
		<path class="st0" d="M694.5,104l38.1,109.9h10.6v1.1h-42.1v-1.1h15.6l-29.1-90.1l-31.4,90.1h16.9v1.1h-31.9v-1.1h13.8L693.3,104
			H694.5z M667.7,180.1V179h46.4v1.1H667.7z"/>
	</g>
</g>
</svg>
