<?xml version="1.0" encoding="utf-8"?>
<!-- Generator: $$$/GeneralStr/196=Adobe Illustrator 27.6.0, SVG Export Plug-In . SVG Version: 6.00 Build 0)  -->
<svg version="1.1" id="Calque_1" xmlns="http://www.w3.org/2000/svg" xmlns:xlink="http://www.w3.org/1999/xlink" x="0px" y="0px"
	 viewBox="0 0 719.1 210.8" style="enable-background:new 0 0 719.1 210.8;" xml:space="preserve">
<style type="text/css">
	.st0{fill:#FFFFFF;}
</style>
<g>
	<path class="st0" d="M156.5,48.5H150V26.6h1.9c1.8,0,3.3,0.3,4.4,0.8c1.2,0.5,2.1,1.3,2.7,2.3s1,2.2,1.2,3.7v0.1h1.7v-15h-1.7
		c-0.1,1.4-0.5,2.7-1.2,3.6c-0.7,0.9-1.6,1.6-2.7,2.1c-1.2,0.5-2.6,0.7-4.4,0.7H150V2.7h8.4c2.5,0,4.5,0.5,6.1,1.5
		c1.6,1,2.8,2.3,3.6,4.1c0.8,1.8,1.3,3.9,1.5,6.2h1.7V1h-35.9v1.7h5.9v45.8h-5.9v1.7h21.1V48.5z"/>
	<path class="st0" d="M232.7,48.3c-0.5,0.1-1.1,0.2-1.8,0.2c-1,0-1.8-0.5-2.2-1.3c-0.4-0.8-0.6-1.9-0.7-3.3c0-1.3-0.1-2.8-0.1-4.5
		s-0.2-3.3-0.5-5c-0.3-1.6-0.9-3.1-1.8-4.5c-0.9-1.3-2.2-2.5-4-3.3c-1.6-0.8-3.6-1.2-6.1-1.3c2.1-0.2,4-0.5,5.7-1
		c2.6-0.9,4.6-2.1,6-3.9c1.4-1.7,2.1-4.1,2.1-6.9s-0.7-5.1-2.2-7c-1.5-1.8-3.6-3.2-6.2-4.1c-2.6-0.9-5.7-1.4-9.2-1.4h-22.5v1.7h6.9
		v45.8h-6.8v1.7h22.3v-1.7h-6.9V26.2h5.9c2,0,3.6,0.3,4.7,1c1.1,0.7,1.9,1.6,2.4,2.8c0.6,1.1,0.9,2.5,1,3.9c0.1,1.5,0.2,3,0.2,4.5
		c0.1,1.5,0.1,3.1,0.3,4.5c0.2,1.4,0.6,2.7,1.1,3.9s1.4,2.1,2.6,2.8c1.1,0.7,2.8,1,4.9,1c1.7,0,3.1-0.1,4.3-0.3
		c1.3-0.2,2.2-0.5,2.7-0.8l-0.6-1.7C233.7,48,233.2,48.2,232.7,48.3z M210.7,2.7c2.1,0,3.9,0.3,5.3,1.1c1.5,0.7,2.6,1.9,3.3,3.5
		s1.1,3.7,1.1,6.2s-0.3,4.6-1.1,6.2c-0.8,1.6-1.9,2.8-3.3,3.6c-1.4,0.8-3.2,1.2-5.3,1.2h-6V2.7H210.7z"/>
	<path class="st0" d="M266.2,48.5h-6.6l4.7-13.4h16.4l4.3,13.4h-6v1.7h21.2v-1.7h-5.3L278.1,0h-3.5l-17,48.5h-5.9v1.7h14.5V48.5z
		 M280.1,33.4h-15.3l7.9-22.8L280.1,33.4z"/>
	<polygon class="st0" points="349.3,2.7 356.7,2.7 356.7,36 334.8,1 325.8,1 324.5,1 317.2,1 317.2,2.7 324,2.7 324,48.6 
		317.2,48.6 317.2,50.3 333.5,50.3 333.5,48.6 325.8,48.6 325.8,3.1 356.1,50.9 358.5,50.9 358.5,2.7 365.4,2.7 365.4,1 349.3,1 	
		"/>
	<path class="st0" d="M401.2,57.7c1.2,0,2.3,0.1,3.3,0.3s1.8,0.6,2.4,1.1c0.6,0.6,0.9,1.4,0.9,2.4c0,1.1-0.5,2-1.6,2.6
		c-1.1,0.7-2.6,1-4.5,1v1.7c3,0,5.4-0.3,7.4-0.9c1.8-0.6,3.1-1.3,3.9-2.3c0.8-1,1.2-2,1.2-3.1c0-1.3-0.4-2.2-1.1-3
		c-0.8-0.8-1.8-1.3-3.1-1.7s-2.9-0.6-4.7-0.7l3.2-4.3c1.9-0.1,3.6-0.5,5.3-1c2-0.8,3.7-1.8,5.2-3.1l3.9,3.5h1.5V36.1h-1.8
		c-0.4,1.8-1,3.5-1.8,5s-1.8,2.8-3,4c-1.2,1.2-2.6,2.1-4.3,2.7c-1.7,0.7-3.6,1-5.7,1c-2.6,0-4.8-0.6-6.6-1.9c-1.8-1.3-3.2-3-4.3-5.2
		c-1-2.2-1.8-4.7-2.3-7.5c-0.5-2.7-0.7-5.6-0.7-8.6c0-2.9,0.2-5.8,0.7-8.6s1.2-5.3,2.3-7.5c1.1-2.2,2.5-3.9,4.3-5.2s4-1.9,6.6-1.9
		c2.3,0,4.4,0.5,6.3,1.5c1.9,1.1,3.5,2.6,4.9,4.4c1.4,1.8,2.3,4.1,2.9,6.7h1.8V1h-1.5L418,4.4c-1.5-1.3-3.2-2.3-5-3
		c-1.9-0.7-3.8-1.1-5.9-1.1c-4.7,0-8.8,1.1-12.2,3.3c-3.4,2.2-6.1,5.2-8,9c-1.9,3.8-2.8,8.1-2.8,13c0,4.9,0.9,9.2,2.8,13
		c1.9,3.8,4.6,6.8,8,9c3.2,2.1,7,3.2,11.4,3.3L401.2,57.7z"/>
	<path class="st0" d="M482.8,7.8c-1.9-2.3-4.2-4.1-6.9-5.4c-2.7-1.3-5.6-1.9-8.9-1.9s-6.2,0.6-8.9,1.9c-2.7,1.3-5,3.1-6.9,5.4
		c-1.9,2.3-3.4,4.9-4.4,8c-1,3-1.5,6.4-1.5,9.9s0.5,6.8,1.5,9.9c1,3,2.4,5.7,4.3,8c1.9,2.3,4.2,4.1,6.9,5.4s5.8,1.9,9.2,1.9
		c3.4,0,6.5-0.7,8.8-1.9c2.7-1.3,5-3.1,6.9-5.4c1.9-2.3,3.3-4.9,4.3-8c1-3,1.5-6.4,1.5-9.9s-0.5-6.8-1.5-9.9
		C486.2,12.8,484.7,10.1,482.8,7.8z M478.6,34.7c-0.3,2.9-0.9,5.4-1.7,7.6c-0.8,2.2-2,3.9-3.6,5.1c-1.6,1.3-3.6,1.9-6.1,1.9
		s-4.6-0.7-6.1-1.9c-1.6-1.2-2.8-2.9-3.6-5.1c-0.8-2.2-1.4-4.8-1.7-7.6c-0.3-2.8-0.5-5.9-0.5-9.1s0.2-6.2,0.6-9.1
		c0.4-2.9,1-5.4,1.9-7.6c0.8-2.2,2-3.9,3.6-5.1c1.5-1.3,3.5-1.9,5.8-1.9s4.3,0.7,5.8,1.9s2.7,2.9,3.6,5.1c0.9,2.2,1.5,4.7,1.9,7.6
		c0.4,2.8,0.6,5.9,0.6,9.1S478.9,31.8,478.6,34.7z"/>
	<polygon class="st0" points="507.6,48.5 507.6,50.2 531.3,50.2 531.3,48.5 523.4,48.5 523.4,2.7 531.3,2.7 531.3,1 507.6,1 
		507.6,2.7 514.8,2.7 514.8,48.5 	"/>
	<path class="st0" d="M555.7,46.7c1.4,1.4,3.1,2.5,5,3.3s4.1,1.2,6.7,1.2c3.1,0,5.8-0.6,8.2-1.4c2.4-1.2,4.3-2.9,5.6-5.1
		c1.3-2.2,2-4.8,2-7.8c0-2.6-0.5-4.9-1.4-6.7c-0.9-1.8-2.2-3.4-3.7-4.7c-1.6-1.2-3.3-2.4-5.1-3.3c-1.8-0.9-3.7-1.8-5.5-2.6
		c-1.9-0.8-3.6-1.6-5.1-2.5c-1.5-0.8-2.8-1.9-3.7-3c-0.9-1.2-1.4-2.6-1.4-4.2c0-2.2,0.7-4,2.2-5.3s3.7-2,6.5-2c2.2,0,4.2,0.4,6,1.4
		c1.7,0.9,3.2,2.3,4.5,4.2c1.2,1.8,2.2,4.1,2.9,6.7h1.7V0.6h-1.4l-4.1,3.8c-1.3-1.3-2.9-2.3-4.6-2.9c-1.7-0.7-3.6-1-5.6-1
		c-2.6,0-4.9,0.5-7.1,1.5s-3.9,2.5-5.2,4.4c-1.3,1.9-1.9,4.2-1.9,6.8c0,2.6,0.5,4.8,1.4,6.6c0.9,1.7,2.1,3.3,3.7,4.5
		c1.5,1.2,3.2,2.3,5.1,3.2c1.9,0.9,3.7,1.7,5.6,2.5c1.8,0.8,3.5,1.6,5.1,2.5c1.6,0.9,2.8,2,3.8,3.2c0.9,1.2,1.4,2.8,1.4,4.6
		c0,1.9-0.5,3.6-1.3,4.9c-0.8,1.3-2,2.4-3.6,3.1s-3.4,1.1-5.6,1.1c-2.1,0-4-0.4-5.7-1.1c-1.6-0.7-3.1-1.7-4.3-2.9
		c-1.2-1.2-2.3-2.6-3.1-4.2c-0.8-1.6-1.5-3.3-2-5H550v14.7h1.6L555.7,46.7z"/>
	<polygon class="st0" points="67,104.9 83.7,104.9 83.7,188.2 31.3,103.1 16.3,103.1 15,103.1 0,103.1 0,104.9 14.4,104.9 
		14.4,208.3 0,208.3 0,210.1 33.2,210.1 33.2,208.3 16.3,208.3 16.3,105.1 83.1,211.5 85.5,211.5 85.5,104.9 100.5,104.9 
		100.5,103.1 67,103.1 	"/>
	<path class="st0" d="M209.1,193.8c-1.6,4.5-4.4,8.1-8.1,10.6c-3.8,2.5-8.9,3.8-15.4,3.8h-22.8v-52.6h8.6c2.7,0,5.2,0.6,7.4,1.7
		c2.2,1.1,4,2.8,5.3,5c1.3,2.2,2,4.9,2,8.1h1.8v-30.6h-1.8c0,3.2-0.7,5.8-2,7.9c-1.3,2.1-3.1,3.6-5.3,4.7c-2.2,1-4.7,1.5-7.4,1.5
		h-8.6v-49H187c5.6,0,10,1.2,13.4,3.7c3.4,2.4,5.9,5.8,7.4,9.9c1.5,4.1,2.3,8.8,2.3,13.9h1.7v-29.2h-75.5v1.8h12.8v103.4h-12.8v1.8
		h77V178h-1.8C211.6,184,210.8,189.3,209.1,193.8z"/>
	<polygon class="st0" points="341.9,103.1 340.5,103.1 309.4,192 276.4,103.1 263.6,103.1 262.8,103.1 251,103.1 251,104.9 
		261.9,104.9 261.9,208.3 251.6,208.3 251.6,210.1 274.4,210.1 274.4,208.3 263.6,208.3 263.6,105.4 302.4,211.5 304.6,211.5 
		341.9,104.5 341.9,208.3 330.4,208.3 330.4,210.1 365.4,210.1 365.4,208.3 355.4,208.3 355.4,104.9 365.4,104.9 365.4,103.1 
		342.4,103.1 	"/>
	<path class="st0" d="M474,193.8c-1.6,4.5-4.4,8.1-8.1,10.6c-3.8,2.5-8.9,3.8-15.4,3.8h-22.8v-52.6h8.6c2.7,0,5.2,0.6,7.4,1.7
		c2.2,1.1,4,2.8,5.3,5s2,4.9,2,8.1h1.8v-30.6H451c0,3.2-0.7,5.8-2,7.9c-1.3,2.1-3.1,3.6-5.3,4.7c-2.2,1-4.7,1.5-7.4,1.5h-8.6v-49
		h24.2c5.6,0,10,1.2,13.4,3.7c3.4,2.4,5.9,5.8,7.4,9.9c1.5,4.1,2.3,8.8,2.3,13.9h1.7v-29.2h-75.5v1.8H414v103.4h-12.8v1.8h77V178
		h-1.8C476.4,184,475.6,189.3,474,193.8z"/>
	<path class="st0" d="M515.9,135.2h1.7c0-4.5,0.3-8.6,0.8-12.4c0.5-3.7,1.6-6.9,3-9.6c1.5-2.7,3.5-4.7,6.2-6.2s6.1-2.2,10.3-2.2
		h14.3v103.4h-15.7v1.8h44.9v-1.8h-15.7V104.9H580c4.1,0,7.5,0.7,10.2,2.2s4.7,3.5,6.2,6.2s2.5,5.9,3.1,9.6s0.9,7.9,0.9,12.4h1.8
		v-32.1h-86.3V135.2z"/>
	<path class="st0" d="M707.9,208.3L670.7,101h-1.9l-37.6,107.3H618v1.8h31.4v-1.8h-16l11.2-32.2H682l10.4,32.2h-15v1.8h41.4v-1.8
		H707.9z M645.2,174.3l18.8-53.8l17.4,53.8H645.2z"/>
</g>
</svg>
