<?xml version="1.0" standalone="no"?>
<!DOCTYPE svg PUBLIC "-//W3C//DTD SVG 20010904//EN"
 "http://www.w3.org/TR/2001/REC-SVG-20010904/DTD/svg10.dtd">
<svg version="1.0" xmlns="http://www.w3.org/2000/svg"
 width="512.000000pt" height="512.000000pt" viewBox="0 0 512.000000 512.000000"
 preserveAspectRatio="xMidYMid meet">
<metadata>
Created by potrace 1.14, written by Peter Selinger 2001-2017
</metadata>
<g transform="translate(0.000000,512.000000) scale(0.100000,-0.100000)"
fill="#000000" stroke="none">
<path d="M1180 2615 l0 -1625 235 0 236 0 -7 1077 -6 1078 183 -181 c101 -99
616 -609 1143 -1132 527 -524 963 -952 968 -952 4 0 8 734 8 1630 l0 1630
-232 0 -233 0 2 -1092 3 -1093 -1138 1143 c-625 628 -1143 1142 -1149 1142
-10 0 -13 -332 -13 -1625z"/>
</g>
</svg>
